<mxfile host="app.diagrams.net" modified="2023-01-17T13:00:49.307Z" agent="5.0 (Macintosh; Intel Mac OS X 10_15_7) AppleWebKit/605.1.15 (KHTML, like Gecko) Version/16.2 Safari/605.1.15" version="20.8.5" etag="lvOG9yUZ0lAwTW7mNYjD" type="github">
  <diagram id="Nah-DqWFfDadvFGV0yu5" name="Page-1">
    <mxGraphModel dx="868" dy="675" grid="1" gridSize="10" guides="1" tooltips="1" connect="1" arrows="1" fold="1" page="1" pageScale="1" pageWidth="827" pageHeight="1169" math="0" shadow="0">
      <root>
        <mxCell id="0" />
        <mxCell id="1" parent="0" />
        <mxCell id="UC8xZoN8R8q6MZUwKy9k-12" style="edgeStyle=orthogonalEdgeStyle;rounded=0;orthogonalLoop=1;jettySize=auto;html=1;entryX=1;entryY=0.5;entryDx=0;entryDy=0;endArrow=classic;endFill=1;strokeColor=default;startArrow=openThin;startFill=0;" edge="1" parent="1" source="UC8xZoN8R8q6MZUwKy9k-5" target="UC8xZoN8R8q6MZUwKy9k-8">
          <mxGeometry relative="1" as="geometry" />
        </mxCell>
        <mxCell id="UC8xZoN8R8q6MZUwKy9k-13" style="edgeStyle=orthogonalEdgeStyle;rounded=0;orthogonalLoop=1;jettySize=auto;html=1;entryX=0;entryY=0.5;entryDx=0;entryDy=0;" edge="1" parent="1" source="UC8xZoN8R8q6MZUwKy9k-5" target="UC8xZoN8R8q6MZUwKy9k-11">
          <mxGeometry relative="1" as="geometry">
            <mxPoint x="120" y="360" as="targetPoint" />
            <Array as="points">
              <mxPoint x="270" y="350" />
            </Array>
          </mxGeometry>
        </mxCell>
        <mxCell id="UC8xZoN8R8q6MZUwKy9k-5" value="" style="fontColor=#0066CC;verticalAlign=top;verticalLabelPosition=bottom;labelPosition=center;align=center;html=1;outlineConnect=0;fillColor=#CCCCCC;strokeColor=#6881B3;gradientColor=none;gradientDirection=north;strokeWidth=2;shape=mxgraph.networks.desktop_pc;" vertex="1" parent="1">
          <mxGeometry x="250" y="110" width="40" height="80" as="geometry" />
        </mxCell>
        <mxCell id="UC8xZoN8R8q6MZUwKy9k-8" value="ZYBO" style="rounded=0;whiteSpace=wrap;html=1;" vertex="1" parent="1">
          <mxGeometry x="35" y="130" width="80" height="40" as="geometry" />
        </mxCell>
        <mxCell id="UC8xZoN8R8q6MZUwKy9k-16" value="" style="edgeStyle=orthogonalEdgeStyle;rounded=0;orthogonalLoop=1;jettySize=auto;html=1;" edge="1" parent="1" source="UC8xZoN8R8q6MZUwKy9k-11" target="UC8xZoN8R8q6MZUwKy9k-15">
          <mxGeometry relative="1" as="geometry" />
        </mxCell>
        <mxCell id="UC8xZoN8R8q6MZUwKy9k-11" value="Relay" style="rounded=0;whiteSpace=wrap;html=1;rotation=0;direction=west;" vertex="1" parent="1">
          <mxGeometry x="40" y="330" width="70" height="40" as="geometry" />
        </mxCell>
        <mxCell id="UC8xZoN8R8q6MZUwKy9k-17" value="" style="edgeStyle=orthogonalEdgeStyle;rounded=0;orthogonalLoop=1;jettySize=auto;html=1;" edge="1" parent="1" source="UC8xZoN8R8q6MZUwKy9k-15" target="UC8xZoN8R8q6MZUwKy9k-8">
          <mxGeometry relative="1" as="geometry" />
        </mxCell>
        <mxCell id="UC8xZoN8R8q6MZUwKy9k-15" value="Breadboard" style="rounded=0;whiteSpace=wrap;html=1;" vertex="1" parent="1">
          <mxGeometry x="40" y="230" width="70" height="50" as="geometry" />
        </mxCell>
        <mxCell id="UC8xZoN8R8q6MZUwKy9k-21" value="" style="edgeStyle=orthogonalEdgeStyle;rounded=0;orthogonalLoop=1;jettySize=auto;html=1;strokeColor=default;startArrow=openThin;startFill=0;endArrow=classic;endFill=1;" edge="1" parent="1" source="UC8xZoN8R8q6MZUwKy9k-18" target="UC8xZoN8R8q6MZUwKy9k-19">
          <mxGeometry relative="1" as="geometry" />
        </mxCell>
        <mxCell id="UC8xZoN8R8q6MZUwKy9k-18" value="User" style="shape=umlActor;verticalLabelPosition=bottom;verticalAlign=top;html=1;outlineConnect=0;" vertex="1" parent="1">
          <mxGeometry x="730" y="120" width="30" height="60" as="geometry" />
        </mxCell>
        <mxCell id="UC8xZoN8R8q6MZUwKy9k-22" value="Remote&lt;br&gt;connection" style="edgeStyle=orthogonalEdgeStyle;rounded=0;orthogonalLoop=1;jettySize=auto;html=1;strokeColor=default;startArrow=openThin;startFill=0;endArrow=classic;endFill=1;entryX=1;entryY=0.5;entryDx=0;entryDy=0;entryPerimeter=0;" edge="1" parent="1" source="UC8xZoN8R8q6MZUwKy9k-19" target="UC8xZoN8R8q6MZUwKy9k-5">
          <mxGeometry relative="1" as="geometry">
            <mxPoint x="510" y="150" as="targetPoint" />
          </mxGeometry>
        </mxCell>
        <mxCell id="UC8xZoN8R8q6MZUwKy9k-19" value="" style="fontColor=#0066CC;verticalAlign=top;verticalLabelPosition=bottom;labelPosition=center;align=center;html=1;outlineConnect=0;fillColor=#CCCCCC;strokeColor=#6881B3;gradientColor=none;gradientDirection=north;strokeWidth=2;shape=mxgraph.networks.virtual_pc;" vertex="1" parent="1">
          <mxGeometry x="600" y="115" width="80" height="70" as="geometry" />
        </mxCell>
      </root>
    </mxGraphModel>
  </diagram>
</mxfile>
